<svg width="360" height="66" viewBox="185 0 300 66" fill="none" xmlns="http://www.w3.org/2000/svg">
<rect x="270" y="7" width="12" height="12" rx="4" fill="#FE7B1D"/>
<path d="M309.479 17.334C309.396 19.1152 308.916 20.6914 308.037 22.0625C307.158 23.4219 305.922 24.4766 304.328 25.2266C302.746 25.9766 300.936 26.3516 298.896 26.3516C295.533 26.3516 292.885 25.2559 290.951 23.0645C289.018 20.873 288.051 17.7793 288.051 13.7832V12.5176C288.051 10.0098 288.484 7.81836 289.352 5.94336C290.23 4.05664 291.49 2.60352 293.131 1.58398C294.771 0.552734 296.67 0.0371094 298.826 0.0371094C301.932 0.0371094 304.428 0.857422 306.314 2.49805C308.201 4.12695 309.273 6.37695 309.531 9.24805H303.379C303.332 7.68945 302.939 6.57031 302.201 5.89062C301.463 5.21094 300.338 4.87109 298.826 4.87109C297.291 4.87109 296.166 5.44531 295.451 6.59375C294.736 7.74219 294.361 9.57617 294.326 12.0957V13.9062C294.326 16.6367 294.666 18.5879 295.346 19.7598C296.037 20.9316 297.221 21.5176 298.896 21.5176C300.314 21.5176 301.398 21.1836 302.148 20.5156C302.898 19.8477 303.297 18.7871 303.344 17.334H309.479ZM321.906 16.9648H318.566V26H312.396V0.40625H322.469C325.504 0.40625 327.877 1.08008 329.588 2.42773C331.299 3.77539 332.154 5.67969 332.154 8.14062C332.154 9.92188 331.791 11.3984 331.064 12.5703C330.35 13.7422 329.225 14.6914 327.689 15.418L333.033 25.7363V26H326.424L321.906 16.9648ZM318.566 12.2012H322.469C323.641 12.2012 324.52 11.8965 325.105 11.2871C325.703 10.666 326.002 9.80469 326.002 8.70312C326.002 7.60156 325.703 6.74023 325.105 6.11914C324.508 5.48633 323.629 5.16992 322.469 5.16992H318.566V12.2012ZM355.955 0.40625V17.1582C355.955 19.0566 355.551 20.7031 354.742 22.0977C353.934 23.4805 352.773 24.5352 351.262 25.2617C349.75 25.9883 347.963 26.3516 345.9 26.3516C342.783 26.3516 340.328 25.543 338.535 23.9258C336.742 22.3086 335.828 20.0938 335.793 17.2812V0.40625H341.998V17.4043C342.068 20.2051 343.369 21.6055 345.9 21.6055C347.178 21.6055 348.145 21.2539 348.801 20.5508C349.457 19.8477 349.785 18.7051 349.785 17.123V0.40625H355.955ZM359.822 26V0.40625H368.066C370.328 0.40625 372.361 0.921875 374.166 1.95312C375.971 2.97266 377.377 4.41992 378.385 6.29492C379.404 8.1582 379.92 10.25 379.932 12.5703V13.748C379.932 16.0918 379.434 18.1953 378.438 20.0586C377.453 21.9102 376.059 23.3633 374.254 24.418C372.461 25.4609 370.457 25.9883 368.242 26H359.822ZM365.992 5.16992V21.2539H368.137C369.906 21.2539 371.266 20.627 372.215 19.373C373.164 18.1074 373.639 16.2324 373.639 13.748V12.6406C373.639 10.168 373.164 8.30469 372.215 7.05078C371.266 5.79688 369.883 5.16992 368.066 5.16992H365.992ZM160.732 58H158.57V32.4062H160.732V58ZM169.205 38.9805L169.275 42.2324C169.99 41.0605 170.881 40.1699 171.947 39.5605C173.014 38.9395 174.191 38.6289 175.48 38.6289C177.52 38.6289 179.037 39.2031 180.033 40.3516C181.029 41.5 181.533 43.2227 181.545 45.5195V58H179.453V45.502C179.441 43.8027 179.078 42.5371 178.363 41.7051C177.66 40.873 176.529 40.457 174.971 40.457C173.67 40.457 172.516 40.8672 171.508 41.6875C170.512 42.4961 169.773 43.5918 169.293 44.9746V58H167.201V38.9805H169.205ZM190.264 34.1113V38.9805H194.201V40.7031H190.264V53.377C190.264 54.4316 190.451 55.2168 190.826 55.7324C191.213 56.248 191.852 56.5059 192.742 56.5059C193.094 56.5059 193.662 56.4473 194.447 56.3301L194.535 58.0527C193.984 58.252 193.234 58.3516 192.285 58.3516C190.844 58.3516 189.795 57.9355 189.139 57.1035C188.482 56.2598 188.154 55.0234 188.154 53.3945V40.7031H184.656V38.9805H188.154V34.1113H190.264ZM205.926 58.3516C204.309 58.3516 202.844 57.9531 201.531 57.1562C200.23 56.3594 199.217 55.252 198.49 53.834C197.764 52.4043 197.4 50.8047 197.4 49.0352V48.2793C197.4 46.4512 197.752 44.8047 198.455 43.3398C199.17 41.875 200.16 40.7266 201.426 39.8945C202.691 39.0508 204.062 38.6289 205.539 38.6289C207.848 38.6289 209.676 39.4199 211.023 41.002C212.383 42.5723 213.062 44.7227 213.062 47.4531V48.6309H199.492V49.0352C199.492 51.1914 200.107 52.9902 201.338 54.4316C202.58 55.8613 204.139 56.5762 206.014 56.5762C207.139 56.5762 208.129 56.3711 208.984 55.9609C209.852 55.5508 210.637 54.8945 211.34 53.9922L212.658 54.9941C211.111 57.2324 208.867 58.3516 205.926 58.3516ZM205.539 40.4219C203.957 40.4219 202.621 41.002 201.531 42.1621C200.453 43.3223 199.797 44.8809 199.562 46.8379H210.971V46.6094C210.912 44.7812 210.391 43.293 209.406 42.1445C208.422 40.9961 207.133 40.4219 205.539 40.4219ZM219.514 58H217.404V31H219.514V58ZM227.6 58H225.49V38.9805H227.6V58ZM225.121 33.4785C225.121 33.0801 225.25 32.7461 225.508 32.4766C225.766 32.1953 226.117 32.0547 226.562 32.0547C227.008 32.0547 227.359 32.1953 227.617 32.4766C227.887 32.7461 228.021 33.0801 228.021 33.4785C228.021 33.877 227.887 34.2109 227.617 34.4805C227.359 34.75 227.008 34.8848 226.562 34.8848C226.117 34.8848 225.766 34.75 225.508 34.4805C225.25 34.2109 225.121 33.877 225.121 33.4785ZM236.6 34.1113V38.9805H240.537V40.7031H236.6V53.377C236.6 54.4316 236.787 55.2168 237.162 55.7324C237.549 56.248 238.188 56.5059 239.078 56.5059C239.43 56.5059 239.998 56.4473 240.783 56.3301L240.871 58.0527C240.32 58.252 239.57 58.3516 238.621 58.3516C237.18 58.3516 236.131 57.9355 235.475 57.1035C234.818 56.2598 234.49 55.0234 234.49 53.3945V40.7031H230.992V38.9805H234.49V34.1113H236.6ZM253.686 40.7734C253.24 40.6914 252.766 40.6504 252.262 40.6504C250.949 40.6504 249.836 41.0195 248.922 41.7578C248.02 42.4844 247.375 43.5449 246.988 44.9395V58H244.896V38.9805H246.953L246.988 42.0039C248.102 39.7539 249.889 38.6289 252.35 38.6289C252.936 38.6289 253.398 38.7051 253.738 38.8574L253.686 40.7734ZM268.328 58C268.117 57.4023 267.982 56.5176 267.924 55.3457C267.186 56.3066 266.242 57.0508 265.094 57.5781C263.957 58.0938 262.75 58.3516 261.473 58.3516C259.645 58.3516 258.162 57.8418 257.025 56.8223C255.9 55.8027 255.338 54.5137 255.338 52.9551C255.338 51.1035 256.105 49.6387 257.641 48.5605C259.188 47.4824 261.338 46.9434 264.092 46.9434H267.906V44.7812C267.906 43.4219 267.484 42.3555 266.641 41.582C265.809 40.7969 264.59 40.4043 262.984 40.4043C261.52 40.4043 260.307 40.7793 259.346 41.5293C258.385 42.2793 257.904 43.1816 257.904 44.2363L255.795 44.2188C255.795 42.707 256.498 41.4004 257.904 40.2988C259.311 39.1855 261.039 38.6289 263.09 38.6289C265.211 38.6289 266.881 39.1621 268.1 40.2285C269.33 41.2832 269.963 42.7598 269.998 44.6582V53.6582C269.998 55.498 270.191 56.875 270.578 57.7891V58H268.328ZM261.719 56.4883C263.125 56.4883 264.379 56.1484 265.48 55.4688C266.594 54.7891 267.402 53.8809 267.906 52.7441V48.5605H264.145C262.047 48.584 260.406 48.9707 259.223 49.7207C258.039 50.459 257.447 51.4785 257.447 52.7793C257.447 53.8457 257.84 54.7305 258.625 55.4336C259.422 56.1367 260.453 56.4883 261.719 56.4883ZM274.779 48.3145C274.779 45.3613 275.436 43.0117 276.748 41.2656C278.072 39.5078 279.865 38.6289 282.127 38.6289C284.693 38.6289 286.65 39.6426 287.998 41.6699V31H290.09V58H288.121L288.033 55.4688C286.686 57.3906 284.705 58.3516 282.092 58.3516C279.9 58.3516 278.131 57.4727 276.783 55.7148C275.447 53.9453 274.779 51.5605 274.779 48.5605V48.3145ZM276.906 48.6836C276.906 51.1094 277.393 53.0254 278.365 54.4316C279.338 55.8262 280.709 56.5234 282.479 56.5234C285.068 56.5234 286.908 55.3809 287.998 53.0957V44.166C286.908 41.6934 285.08 40.457 282.514 40.457C280.744 40.457 279.367 41.1543 278.383 42.5488C277.398 43.9316 276.906 45.9766 276.906 48.6836ZM302.992 58.3516C301.375 58.3516 299.91 57.9531 298.598 57.1562C297.297 56.3594 296.283 55.252 295.557 53.834C294.83 52.4043 294.467 50.8047 294.467 49.0352V48.2793C294.467 46.4512 294.818 44.8047 295.521 43.3398C296.236 41.875 297.227 40.7266 298.492 39.8945C299.758 39.0508 301.129 38.6289 302.605 38.6289C304.914 38.6289 306.742 39.4199 308.09 41.002C309.449 42.5723 310.129 44.7227 310.129 47.4531V48.6309H296.559V49.0352C296.559 51.1914 297.174 52.9902 298.404 54.4316C299.646 55.8613 301.205 56.5762 303.08 56.5762C304.205 56.5762 305.195 56.3711 306.051 55.9609C306.918 55.5508 307.703 54.8945 308.406 53.9922L309.725 54.9941C308.178 57.2324 305.934 58.3516 302.992 58.3516ZM302.605 40.4219C301.023 40.4219 299.688 41.002 298.598 42.1621C297.52 43.3223 296.863 44.8809 296.629 46.8379H308.037V46.6094C307.979 44.7812 307.457 43.293 306.473 42.1445C305.488 40.9961 304.199 40.4219 302.605 40.4219ZM323.014 40.7734C322.568 40.6914 322.094 40.6504 321.59 40.6504C320.277 40.6504 319.164 41.0195 318.25 41.7578C317.348 42.4844 316.703 43.5449 316.316 44.9395V58H314.225V38.9805H316.281L316.316 42.0039C317.43 39.7539 319.217 38.6289 321.678 38.6289C322.264 38.6289 322.727 38.7051 323.066 38.8574L323.014 40.7734ZM332.893 47.5938H324.473V45.8184H332.893V47.5938ZM344.02 58.3516C342.402 58.3516 340.938 57.9531 339.625 57.1562C338.324 56.3594 337.311 55.252 336.584 53.834C335.857 52.4043 335.494 50.8047 335.494 49.0352V48.2793C335.494 46.4512 335.846 44.8047 336.549 43.3398C337.264 41.875 338.254 40.7266 339.52 39.8945C340.785 39.0508 342.156 38.6289 343.633 38.6289C345.941 38.6289 347.77 39.4199 349.117 41.002C350.477 42.5723 351.156 44.7227 351.156 47.4531V48.6309H337.586V49.0352C337.586 51.1914 338.201 52.9902 339.432 54.4316C340.674 55.8613 342.232 56.5762 344.107 56.5762C345.232 56.5762 346.223 56.3711 347.078 55.9609C347.945 55.5508 348.73 54.8945 349.434 53.9922L350.752 54.9941C349.205 57.2324 346.961 58.3516 344.02 58.3516ZM343.633 40.4219C342.051 40.4219 340.715 41.002 339.625 42.1621C338.547 43.3223 337.891 44.8809 337.656 46.8379H349.064V46.6094C349.006 44.7812 348.484 43.293 347.5 42.1445C346.516 40.9961 345.227 40.4219 343.633 40.4219ZM361.229 46.6973L366.361 38.9805H368.857L362.406 48.3145L369.139 58H366.66L361.246 49.9492L355.832 58H353.354L360.068 48.3145L353.617 38.9805H356.096L361.229 46.6973ZM388.053 48.6836C388.053 51.6484 387.396 54.0039 386.084 55.75C384.771 57.4844 383.014 58.3516 380.811 58.3516C378.209 58.3516 376.217 57.4375 374.834 55.6094V65.3125H372.742V38.9805H374.693L374.799 41.6699C376.17 39.6426 378.156 38.6289 380.758 38.6289C383.031 38.6289 384.812 39.4902 386.102 41.2129C387.402 42.9355 388.053 45.3262 388.053 48.3848V48.6836ZM385.943 48.3145C385.943 45.8887 385.445 43.9727 384.449 42.5664C383.453 41.1602 382.064 40.457 380.283 40.457C378.994 40.457 377.887 40.7676 376.961 41.3887C376.035 42.0098 375.326 42.9121 374.834 44.0957V53.2188C375.338 54.3086 376.059 55.1406 376.996 55.7148C377.934 56.2891 379.041 56.5762 380.318 56.5762C382.088 56.5762 383.465 55.873 384.449 54.4668C385.445 53.0488 385.943 50.998 385.943 48.3145ZM400.094 58.3516C398.477 58.3516 397.012 57.9531 395.699 57.1562C394.398 56.3594 393.385 55.252 392.658 53.834C391.932 52.4043 391.568 50.8047 391.568 49.0352V48.2793C391.568 46.4512 391.92 44.8047 392.623 43.3398C393.338 41.875 394.328 40.7266 395.594 39.8945C396.859 39.0508 398.23 38.6289 399.707 38.6289C402.016 38.6289 403.844 39.4199 405.191 41.002C406.551 42.5723 407.23 44.7227 407.23 47.4531V48.6309H393.66V49.0352C393.66 51.1914 394.275 52.9902 395.506 54.4316C396.748 55.8613 398.307 56.5762 400.182 56.5762C401.307 56.5762 402.297 56.3711 403.152 55.9609C404.02 55.5508 404.805 54.8945 405.508 53.9922L406.826 54.9941C405.279 57.2324 403.035 58.3516 400.094 58.3516ZM399.707 40.4219C398.125 40.4219 396.789 41.002 395.699 42.1621C394.621 43.3223 393.965 44.8809 393.73 46.8379H405.139V46.6094C405.08 44.7812 404.559 43.293 403.574 42.1445C402.59 40.9961 401.301 40.4219 399.707 40.4219ZM420.115 40.7734C419.67 40.6914 419.195 40.6504 418.691 40.6504C417.379 40.6504 416.266 41.0195 415.352 41.7578C414.449 42.4844 413.805 43.5449 413.418 44.9395V58H411.326V38.9805H413.383L413.418 42.0039C414.531 39.7539 416.318 38.6289 418.779 38.6289C419.365 38.6289 419.828 38.7051 420.168 38.8574L420.115 40.7734ZM425.811 58H423.701V38.9805H425.811V58ZM423.332 33.4785C423.332 33.0801 423.461 32.7461 423.719 32.4766C423.977 32.1953 424.328 32.0547 424.773 32.0547C425.219 32.0547 425.57 32.1953 425.828 32.4766C426.098 32.7461 426.232 33.0801 426.232 33.4785C426.232 33.877 426.098 34.2109 425.828 34.4805C425.57 34.75 425.219 34.8848 424.773 34.8848C424.328 34.8848 423.977 34.75 423.719 34.4805C423.461 34.2109 423.332 33.877 423.332 33.4785ZM438.906 58.3516C437.289 58.3516 435.824 57.9531 434.512 57.1562C433.211 56.3594 432.197 55.252 431.471 53.834C430.744 52.4043 430.381 50.8047 430.381 49.0352V48.2793C430.381 46.4512 430.732 44.8047 431.436 43.3398C432.15 41.875 433.141 40.7266 434.406 39.8945C435.672 39.0508 437.043 38.6289 438.52 38.6289C440.828 38.6289 442.656 39.4199 444.004 41.002C445.363 42.5723 446.043 44.7227 446.043 47.4531V48.6309H432.473V49.0352C432.473 51.1914 433.088 52.9902 434.318 54.4316C435.561 55.8613 437.119 56.5762 438.994 56.5762C440.119 56.5762 441.109 56.3711 441.965 55.9609C442.832 55.5508 443.617 54.8945 444.32 53.9922L445.639 54.9941C444.092 57.2324 441.848 58.3516 438.906 58.3516ZM438.52 40.4219C436.938 40.4219 435.602 41.002 434.512 42.1621C433.434 43.3223 432.777 44.8809 432.543 46.8379H443.951V46.6094C443.893 44.7812 443.371 43.293 442.387 42.1445C441.402 40.9961 440.113 40.4219 438.52 40.4219ZM452.143 38.9805L452.213 42.2324C452.928 41.0605 453.818 40.1699 454.885 39.5605C455.951 38.9395 457.129 38.6289 458.418 38.6289C460.457 38.6289 461.975 39.2031 462.971 40.3516C463.967 41.5 464.471 43.2227 464.482 45.5195V58H462.391V45.502C462.379 43.8027 462.016 42.5371 461.301 41.7051C460.598 40.873 459.467 40.457 457.908 40.457C456.607 40.457 455.453 40.8672 454.445 41.6875C453.449 42.4961 452.711 43.5918 452.23 44.9746V58H450.139V38.9805H452.143ZM476.963 56.5762C478.428 56.5762 479.652 56.166 480.637 55.3457C481.633 54.5137 482.172 53.4414 482.254 52.1289H484.275C484.217 53.2891 483.854 54.3496 483.186 55.3105C482.518 56.2598 481.627 57.0039 480.514 57.543C479.412 58.082 478.229 58.3516 476.963 58.3516C474.467 58.3516 472.486 57.4844 471.021 55.75C469.568 54.0156 468.842 51.6836 468.842 48.7539V48.1211C468.842 46.2461 469.17 44.5879 469.826 43.1465C470.482 41.7051 471.42 40.5918 472.639 39.8066C473.869 39.0215 475.305 38.6289 476.945 38.6289C479.031 38.6289 480.748 39.25 482.096 40.4922C483.455 41.7344 484.182 43.3691 484.275 45.3965H482.254C482.16 43.9082 481.621 42.707 480.637 41.793C479.664 40.8789 478.434 40.4219 476.945 40.4219C475.047 40.4219 473.57 41.1074 472.516 42.4785C471.473 43.8496 470.951 45.7715 470.951 48.2441V48.8594C470.951 51.2852 471.473 53.1777 472.516 54.5371C473.57 55.8965 475.053 56.5762 476.963 56.5762ZM490.85 58H488.74V38.9805H490.85V58ZM488.371 33.4785C488.371 33.0801 488.5 32.7461 488.758 32.4766C489.016 32.1953 489.367 32.0547 489.812 32.0547C490.258 32.0547 490.609 32.1953 490.867 32.4766C491.137 32.7461 491.271 33.0801 491.271 33.4785C491.271 33.877 491.137 34.2109 490.867 34.4805C490.609 34.75 490.258 34.8848 489.812 34.8848C489.367 34.8848 489.016 34.75 488.758 34.4805C488.5 34.2109 488.371 33.877 488.371 33.4785ZM508.586 58C508.375 57.4023 508.24 56.5176 508.182 55.3457C507.443 56.3066 506.5 57.0508 505.352 57.5781C504.215 58.0938 503.008 58.3516 501.73 58.3516C499.902 58.3516 498.42 57.8418 497.283 56.8223C496.158 55.8027 495.596 54.5137 495.596 52.9551C495.596 51.1035 496.363 49.6387 497.898 48.5605C499.445 47.4824 501.596 46.9434 504.35 46.9434H508.164V44.7812C508.164 43.4219 507.742 42.3555 506.898 41.582C506.066 40.7969 504.848 40.4043 503.242 40.4043C501.777 40.4043 500.564 40.7793 499.604 41.5293C498.643 42.2793 498.162 43.1816 498.162 44.2363L496.053 44.2188C496.053 42.707 496.756 41.4004 498.162 40.2988C499.568 39.1855 501.297 38.6289 503.348 38.6289C505.469 38.6289 507.139 39.1621 508.357 40.2285C509.588 41.2832 510.221 42.7598 510.256 44.6582V53.6582C510.256 55.498 510.449 56.875 510.836 57.7891V58H508.586ZM501.977 56.4883C503.383 56.4883 504.637 56.1484 505.738 55.4688C506.852 54.7891 507.66 53.8809 508.164 52.7441V48.5605H504.402C502.305 48.584 500.664 48.9707 499.48 49.7207C498.297 50.459 497.705 51.4785 497.705 52.7793C497.705 53.8457 498.098 54.7305 498.883 55.4336C499.68 56.1367 500.711 56.4883 501.977 56.4883Z" fill="#383838"/>
</svg>
